#!OML:ASF X:\für Bonn\!DataBase\2005_08_12_Daniel\c3d\Daniel.ASF
:FULLY-SPECIFIED
:DEGREES
131
root 0.921903 13.3783 -0.713339 48.7391 -87.5726 -65.2986
lowerback 44.6133 -3.1885 5.86296
upperback 4.24038 -2.36272 -1.95805
thorax -16.5621 -1.72658 -3.94969
lowerneck 4.62277 1.21365 -1.44754
upperneck -2.56681 1.46776 -1.47357
head -1.57399 0.775927 -0.254888
rclavicle -4.77083e-015 1.19271e-015
rhumerus 62.8564 -1.53485 -96.8153
rradius 9.90123
rwrist 60.5219
rhand -21.4629 9.45412
rfingers 7.12502
rthumb 4.9274 -20.4686
lclavicle -4.77083e-015 1.19271e-015
lhumerus 65.7071 7.0458 97.2922
lradius 10.5362
lwrist -74.28
lhand -17.7396 3.6476
lfingers 7.12502
lthumb 8.52161 33.4557
rfemur -37.7794 -22.2175 5.89436
rtibia 97.4499
rfoot -6.83405 18.6508
rtoes -8.66904
lfemur -38.5157 20.2274 -3.06053
ltibia 95.5311
lfoot -23.1444 -21.7553
ltoes 1.79083
132
root 0.906662 13.5503 -0.711094 50.9916 -87.5529 -67.3115
lowerback 44.106 -3.16724 5.88986
upperback 4.15539 -2.3274 -1.94182
thorax -16.5064 -1.70674 -3.97646
lowerneck 4.55595 1.2243 -1.49631
upperneck -2.39941 1.48547 -1.40692
head -1.50924 0.781913 -0.224974
rclavicle -5.96354e-016 5.1684e-015
rhumerus 62.632 -1.56617 -97.0075
rradius 9.93396
rwrist 60.6218
rhand -21.3345 9.39949
rfingers 7.12502
rthumb 5.0514 -20.5203
lclavicle -5.96354e-016 5.1684e-015
lhumerus 65.6414 7.21386 97.7199
lradius 10.4803
lwrist -74.8086
lhand -17.5768 3.74289
lfingers 7.12502
lthumb 8.67879 33.5445
rfemur -36.8002 -21.6343 6.37058
rtibia 95.5661
rfoot -6.92365 18.1318
rtoes -8.69818
lfemur -37.4645 19.5741 -3.36405
ltibia 93.6561
lfoot -23.1424 -21.0278
ltoes 1.76181
133
root 0.890514 13.7218 -0.70937 53.1037 -87.5209 -69.189
lowerback 43.57 -3.14734 5.90124
upperback 4.09019 -2.30326 -1.91511
thorax -16.4146 -1.68989 -3.97814
lowerneck 4.48335 1.23562 -1.57058
upperneck -2.28801 1.5023 -1.3259
head -1.46194 0.788013 -0.186662
rclavicle -2.68359e-015 1.59028e-015
rhumerus 62.4662 -1.56506 -97.2061
rradius 9.90217
rwrist 60.7241
rhand -21.2235 9.40996
rfingers 7.12502
rthumb 5.15856 -20.5073
lclavicle -2.68359e-015 1.59028e-015
lhumerus 65.5859 7.3856 98.0897
lradius 10.4491
lwrist -75.2197
lhand -17.3792 3.71682
lfingers 7.12502
lthumb 8.86941 33.5104
rfemur -35.7824 -21.0927 6.82498
rtibia 93.6579
rfoot -7.01803 17.6298
rtoes -8.77297
lfemur -36.3969 18.934 -3.65756
ltibia 91.7508
lfoot -23.1303 -20.2905
ltoes 1.72118
134
root 0.873206 13.8916 -0.708096 54.8203 -87.4946 -70.6512
lowerback 42.9894 -3.12007 5.90115
upperback 4.02956 -2.2772 -1.8852
thorax -16.299 -1.67074 -3.97229
lowerneck 4.38618 1.25312 -1.67417
upperneck -2.16554 1.52663 -1.23607
head -1.40729 0.797754 -0.140765
rclavicle -1.88845e-015 -9.93923e-015
rhumerus 62.3934 -1.56563 -97.3945
rradius 9.73568
rwrist 60.7988
rhand -21.1713 9.39415
rfingers 7.12502
rthumb 5.2089 -20.5218
lclavicle -1.88845e-015 -9.93923e-015
lhumerus 65.5409 7.54342 98.4629
lradius 10.446
lwrist -75.5882
lhand -17.1651 3.61988
lfingers 7.12502
lthumb 9.076 33.4046
rfemur -34.7719 -20.6127 7.25575
rtibia 91.7349
rfoot -7.1052 17.1351
rtoes -8.8745
lfemur -35.3554 18.2918 -3.95933
ltibia 89.8375
lfoot -23.0671 -19.5801
ltoes 1.71901
135
root 0.855555 14.0623 -0.707505 56.3477 -87.4475 -71.9539
lowerback 42.456 -3.10965 5.90156
upperback 3.94469 -2.26653 -1.84744
thorax -16.2261 -1.65883 -3.94916
lowerneck 4.32471 1.27261 -1.79869
upperneck -2.03145 1.55192 -1.13675
head -1.35568 0.807936 -0.0887668
rclavicle 1.2424e-014 -6.75868e-015
rhumerus 62.2812 -1.55633 -97.5842
rradius 9.5752
rwrist 60.8705
rhand -21.1158 9.36502
rfingers 7.12502
rthumb 5.26254 -20.5496
lclavicle 1.2424e-014 -6.75868e-015
lhumerus 65.4215 7.6718 98.6643
lradius 10.4563
lwrist -75.697
lhand -16.9445 3.50298
lfingers 7.12502
lthumb 9.28885 33.2783
rfemur -33.6922 -20.1834 7.67143
rtibia 89.7693
rfoot -7.16265 16.625
rtoes -8.91469
lfemur -34.2791 17.6657 -4.22208
ltibia 87.8945
lfoot -22.9821 -18.8768
ltoes 1.69243
136
root 0.837367 14.23 -0.707166 57.6 -87.3876 -72.9415
lowerback 41.8539 -3.09857 5.92715
upperback 3.85807 -2.24689 -1.81383
thorax -16.1289 -1.64373 -3.95014
lowerneck 4.29531 1.28377 -1.88804
upperneck -1.92602 1.56612 -1.06146
head -1.31845 0.813121 -0.0502474
rclavicle 9.34288e-015 4.77083e-015
rhumerus 62.1571 -1.57148 -97.7738
rradius 9.46167
rwrist 60.9764
rhand -21.0182 9.37716
rfingers 7.12502
rthumb 5.35678 -20.5351
lclavicle 9.34288e-015 4.77083e-015
lhumerus 65.2853 7.77529 98.9208
lradius 10.53
lwrist -75.8903
lhand -16.6889 3.32012
lfingers 7.12502
lthumb 9.53547 33.0844
rfemur -32.6512 -19.8015 8.08811
rtibia 87.7902
rfoot -7.21887 16.1495
rtoes -8.95689
lfemur -33.2718 17.0416 -4.49397
ltibia 85.9543
lfoot -22.8979 -18.1299
ltoes 1.62727
137
root 0.818293 14.397 -0.706684 58.6785 -87.334 -73.7869
lowerback 41.2795 -3.08646 5.96181
upperback 3.779 -2.2238 -1.78704
thorax -16.0282 -1.6282 -3.9645
lowerneck 4.17578 1.29587 -1.98566
upperneck -1.77099 1.58485 -0.965534
head -1.2502 0.819544 -0.00334552
rclavicle -2.20651e-014 -2.0276e-014
rhumerus 62.0295 -1.60876 -97.9562
rradius 9.40137
rwrist 61.1385
rhand -20.939 9.35766
rfingers 7.12502
rthumb 5.43327 -20.5527
lclavicle -2.20651e-014 -2.0276e-014
lhumerus 65.1204 7.82567 99.0692
lradius 10.649
lwrist -75.904
lhand -16.4082 3.04299
lfingers 7.12502
lthumb 9.8063 32.7946
rfemur -31.5567 -19.4502 8.46653
rtibia 85.7871
rfoot -7.24496 15.6835
rtoes -8.97749
lfemur -32.2087 16.4061 -4.75472
ltibia 83.9858
lfoot -22.7935 -17.389
ltoes 1.61083
